<svg width="602" height="562" viewBox="0 0 602.619 561.713" fill="none" xmlns="http://www.w3.org/2000/svg" aria-hidden="true">
  <path d="M208.077 495.435C208.077 495.435 301.421 547.514 374.023 557.263C446.624 567.012 520.718 569.214 555.258 433.485C589.798 297.756 530.907 139.189 509.617 110.798C488.327 82.406 465.143 34.9271 334.645 6.18865C204.147 -22.5498 131.549 62.0916 106.734 159.028C81.9187 255.964 71.5119 311.509 100.814 378.597C130.115 445.684 175.533 475.297 187.101 482.987C193.866 487.507 200.868 491.662 208.077 495.435Z" stroke="#00652E"/>
  <path d="M358.008 533.211C358.008 533.211 464.414 503.014 524.668 457.028C584.922 411.042 640.741 358.435 566.707 233.857C492.673 109.278 333.562 36.3456 297.211 31.1502C260.86 25.9547 209.162 8.18132 92.6496 82.6322C-23.8624 157.083 -15.0485 272.136 37.7215 361.218C90.4914 450.301 123.518 498.557 194.043 526.202C264.567 553.847 319.464 542.285 333.557 539.45C341.813 537.807 349.975 535.724 358.009 533.209L358.008 533.211Z" stroke="#00652E"/>
</svg>
