<?xml version="1.0" encoding="UTF-8"?>
<svg version="1.1" xmlns="http://www.w3.org/2000/svg" width="64" height="64" viewBox="0 0 64 64" role="img" aria-label="Fãs por Natureza">
<path d="M0 0 C2 1.25 2 1.25 2.8125 3.375 C2.874375 3.99375 2.93625 4.6125 3 5.25 C4.03125 5.146875 5.0625 5.04375 6.125 4.9375 C11.02438794 5.33261193 12.60576518 6.77862348 16 10.25 C17.94135123 12.83846831 18.8815468 14.57312458 19.4375 17.75 C18.85385262 21.08512789 17.25198847 22.78688761 15 25.25 C17.64 25.58 20.28 25.91 23 26.25 C23.16249454 28.66936317 23.28097817 31.07781859 23.375 33.5 C23.42527344 34.18191406 23.47554688 34.86382812 23.52734375 35.56640625 C23.5859375 37.578125 23.5859375 37.578125 23 41.25 C18.33333333 45.25 18.33333333 45.25 15 45.25 C14.505 46.24 14.505 46.24 14 47.25 C12.02111039 47.97693904 10.02045442 48.64816251 8 49.25 C9.093125 49.229375 10.18625 49.20875 11.3125 49.1875 C15 49.25 15 49.25 18 50.25 C17.50971384 54.49426822 16.44544451 56.26792037 13.1875 59 C12.15689453 59.88945313 12.15689453 59.88945313 11.10546875 60.796875 C5.43979254 64.70713761 -2.19160575 63.54645814 -8.80883789 63.60009766 C-10.31322633 63.61672073 -11.81753378 63.64409412 -13.3215332 63.68212891 C-15.49732115 63.73679097 -17.6712752 63.75874253 -19.84765625 63.7734375 C-21.7968396 63.8031665 -21.7968396 63.8031665 -23.78540039 63.83349609 C-27 63.25 -27 63.25 -28.79858398 60.81884766 C-29.19505127 59.97112793 -29.59151855 59.1234082 -30 58.25 C-30.78375 57.71375 -31.5675 57.1775 -32.375 56.625 C-38.14711281 51.40261222 -40.64282669 43.10618323 -41.203125 35.48828125 C-41.39944822 23.23444052 -39.04817135 16.60700166 -30.5703125 7.59765625 C-26.75489374 4.11275249 -23.39759029 2.0746773 -18.3125 1.125 C-5.39771646 -1.34942912 -5.39771646 -1.34942912 0 0 Z M-15.05078125 9.23828125 C-17.83174476 12.10841394 -18.89493344 14.4191026 -20 18.25 C-19.67 19.24 -19.34 20.23 -19 21.25 C-16.9600281 19.88676257 -16.9600281 19.88676257 -15 18.25 C-15 17.59 -15 16.93 -15 16.25 C-14.21625 16.0025 -13.4325 15.755 -12.625 15.5 C-9.96157469 14.48091016 -9.96157469 14.48091016 -8.6875 12.5 C-7.82549899 9.67890579 -7.86670889 7.18240449 -8 4.25 C-10.55677851 4.25 -13.2449932 7.63998052 -15.05078125 9.23828125 Z M-30 11.25 C-33.34021455 16.17754683 -36.74132682 21.37619181 -38 27.25 C-37.71136728 28.59371874 -37.38460758 29.93054333 -37 31.25 C-36.59007812 30.41855469 -36.18015625 29.58710938 -35.7578125 28.73046875 C-35.21898437 27.64378906 -34.68015625 26.55710937 -34.125 25.4375 C-33.59132813 24.35855469 -33.05765625 23.27960937 -32.5078125 22.16796875 C-31 19.25 -31 19.25 -29 16.25 C-28.83286431 13.62468476 -28.83286431 13.62468476 -29 11.25 C-29.33 11.25 -29.66 11.25 -30 11.25 Z M0.984375 18.9296875 C-4.50757768 21.86769016 -7.89977517 25.07915036 -11.4921875 30.1640625 C-12.86781471 32.06713226 -14.29317309 33.6453783 -16 35.25 C-15.67 35.91 -15.34 36.57 -15 37.25 C-13.36802158 36.51530861 -11.74458693 35.76161878 -10.125 35 C-9.22007813 34.58234375 -8.31515625 34.1646875 -7.3828125 33.734375 C-4.80027811 32.12558308 -4.04392814 31.05780672 -3 28.25 C-2.34 28.25 -1.68 28.25 -1 28.25 C-1 27.59 -1 26.93 -1 26.25 C-0.34 26.25 0.32 26.25 1 26.25 C2.35712166 24.69144019 2.35712166 24.69144019 3.625 22.75 C4.07101563 22.1003125 4.51703125 21.450625 4.9765625 20.78125 C5.31429687 20.2759375 5.65203125 19.770625 6 19.25 C3.16308608 17.96948214 3.16308608 17.96948214 0.984375 18.9296875 Z M-39 31.25 C-38 35.25 -38 35.25 -38 35.25 Z M-26 51.25 C-22.67672118 52.37624054 -20.87943767 52.13654368 -17.62890625 50.88671875 C-16.80712891 50.57669922 -15.98535156 50.26667969 -15.13867188 49.94726562 C-13.8634668 49.44743164 -13.8634668 49.44743164 -12.5625 48.9375 C-11.71623047 48.61587891 -10.86996094 48.29425781 -9.99804688 47.96289062 C-5.98291289 46.43166882 -1.98365486 44.86145792 2 43.25 C-6.44923617 40.1146208 -18.47014513 47.56806696 -26 51.25 Z " fill="#088137" transform="translate(41,0.75)"/>
<path d="M0 0 C0.639375 0.33 1.27875 0.66 1.9375 1 C1.9375 13.41619295 -5.37693376 25.23924136 -13.84375 33.89453125 C-14.5759375 34.58933594 -15.308125 35.28414062 -16.0625 36 C-16.7328125 36.64324219 -17.403125 37.28648438 -18.09375 37.94921875 C-21.47240065 41.03961151 -25.05646126 43.85797494 -28.75 46.5625 C-29.45511719 47.07941406 -30.16023438 47.59632812 -30.88671875 48.12890625 C-33.0625 49 -33.0625 49 -35.71875 48.39453125 C-39.14826124 46.35397206 -39.51480604 44.40729051 -40.55859375 40.69140625 C-42.09253561 32.49849199 -41.96820813 23.50918885 -38.0625 16 C-32.7677061 9.03219831 -27.29785116 2.54140684 -18.375 0.875 C-5.10605885 -1.66728452 -5.10605885 -1.66728452 0 0 Z M-15.11328125 8.98828125 C-17.89424476 11.85841394 -18.95743344 14.1691026 -20.0625 18 C-19.7325 18.99 -19.4025 19.98 -19.0625 21 C-17.0225281 19.63676257 -17.0225281 19.63676257 -15.0625 18 C-15.0625 17.34 -15.0625 16.68 -15.0625 16 C-14.27875 15.7525 -13.495 15.505 -12.6875 15.25 C-10.02407469 14.23091016 -10.02407469 14.23091016 -8.75 12.25 C-7.88799899 9.42890579 -7.92920889 6.93240449 -8.0625 4 C-10.61927851 4 -13.3074932 7.38998052 -15.11328125 8.98828125 Z M-30.0625 11 C-33.40271455 15.92754683 -36.80382682 21.12619181 -38.0625 27 C-37.77386728 28.34371874 -37.44710758 29.68054333 -37.0625 31 C-36.65257812 30.16855469 -36.24265625 29.33710938 -35.8203125 28.48046875 C-35.28148437 27.39378906 -34.74265625 26.30710937 -34.1875 25.1875 C-33.65382813 24.10855469 -33.12015625 23.02960937 -32.5703125 21.91796875 C-31.0625 19 -31.0625 19 -29.0625 16 C-28.89536431 13.37468476 -28.89536431 13.37468476 -29.0625 11 C-29.3925 11 -29.7225 11 -30.0625 11 Z M-39.0625 31 C-38.0625 35 -38.0625 35 -38.0625 35 Z " fill="#098136" transform="translate(41.0625,1)"/>
<path d="M0 0 C0.66 0.33 1.32 0.66 2 1 C1.06027344 2.485 1.06027344 2.485 0.1015625 4 C-0.72451492 5.33298857 -1.55000447 6.66634158 -2.375 8 C-2.7875 8.64839844 -3.2 9.29679688 -3.625 9.96484375 C-6.456341 14.57718957 -7.92197708 18.69281023 -9 24 C-8.68546875 23.32453125 -8.3709375 22.6490625 -8.046875 21.953125 C-3.79613357 13.09314587 -3.79613357 13.09314587 0 10 C-0.51833524 15.01057396 -1.40399393 19.21198179 -3 24 C-3.0364876 25.66626722 -3.04200346 27.3338627 -3 29 C-2.63237549 28.56655273 -2.26475098 28.13310547 -1.88598633 27.68652344 C-0.19955203 25.70360525 1.49388989 23.72679195 3.1875 21.75 C3.76564453 21.06808594 4.34378906 20.38617187 4.93945312 19.68359375 C9.08784246 14.8555248 13.08359786 10.62951206 19 8 C16.34023891 17.34159992 12.75351209 23.94313852 5.18359375 30.125 C1.92178979 32.92583345 -0.92744013 36.10518581 -3.82421875 39.27734375 C-6.43200811 41.34203874 -7.75546082 41.36934334 -11 41 C-13.95762301 31.3877252 -14.81303424 20.16029097 -10 11 C-6.89481762 7.07476946 -3.56474621 3.51792966 0 0 Z M-11 26 C-10 30 -10 30 -10 30 Z " fill="#369A3A" transform="translate(13,6)"/>
<path d="M0 0 C-0.49028616 4.24426822 -1.55455549 6.01792037 -4.8125 8.75 C-5.49957031 9.34296875 -6.18664063 9.9359375 -6.89453125 10.546875 C-12.56020746 14.45713761 -20.19160575 13.29645814 -26.80883789 13.35009766 C-28.31322633 13.36672073 -29.81753378 13.39409412 -31.3215332 13.43212891 C-33.49732115 13.48679097 -35.6712752 13.50874253 -37.84765625 13.5234375 C-39.7968396 13.5531665 -39.7968396 13.5531665 -41.78540039 13.58349609 C-45 13 -45 13 -46.94702148 10.46728516 C-47.29450439 9.65308105 -47.6419873 8.83887695 -48 8 C-44.58377621 5.72251747 -41.57973923 5.22177775 -37.625 4.5625 C-32.41255599 3.64793262 -27.26928244 2.63044988 -22.125 1.375 C-14.69041302 -0.37539842 -7.55406836 -1.78912145 0 0 Z " fill="#4795CA" transform="translate(59,51)"/>
<path d="M0 0 C0 4.95 0 9.9 0 15 C-0.495 14.01 -0.495 14.01 -1 13 C-12.44703256 13.2297762 -23.0114293 16.01209651 -34 19 C-34 18.34 -34 17.68 -34 17 C-31.90136582 15.54244715 -29.80718889 14.19678458 -27.625 12.875 C-22.98097076 10.01844192 -18.8255822 7.08989874 -14.75 3.4375 C-9.778532 -0.73291751 -6.3402034 -0.72459467 0 0 Z " fill="#57A3D2" transform="translate(64,27)"/>
<path d="M0 0 C-0.3125 1.9296875 -0.3125 1.9296875 -1 4 C-4 5.125 -4 5.125 -7 6 C-7.33 6.66 -7.66 7.32 -8 8 C-10.51171875 9.03515625 -10.51171875 9.03515625 -13.6875 10.0625 C-14.72261719 10.40410156 -15.75773437 10.74570312 -16.82421875 11.09765625 C-22.66755992 12.75794138 -27.97639122 13.10385532 -34 13 C-34 11.68 -34 10.36 -34 9 C-11.61149919 -1.74495628 -11.61149919 -1.74495628 0 0 Z " fill="#BCCF0A" transform="translate(63,40)"/>
<path d="M0 0 C0.33 0.66 0.66 1.32 1 2 C-0.39772125 5.46365134 -2.23933914 8.70855685 -4 12 C-4.6496875 13.3303125 -4.6496875 13.3303125 -5.3125 14.6875 C-7.44511759 17.60997595 -9.97539801 19.70806685 -12.74609375 22.01953125 C-16.00570018 24.88369149 -18.90000575 28.07514341 -21.82421875 31.27734375 C-24.43200811 33.34203874 -25.75546082 33.36934334 -29 33 C-29.33 31.35 -29.66 29.7 -30 28 C-29.278125 27.9175 -28.55625 27.835 -27.8125 27.75 C-21.5885732 26.09028619 -18.2888119 21.18829072 -15 16 C-14.32592724 14.77487917 -13.65899367 13.5457974 -13 12.3125 C-10.96705248 8.94543066 -9.15980331 7.26857673 -6 5 C-5.46375 4.46375 -4.9275 3.9275 -4.375 3.375 C-3 2 -3 2 0 0 Z " fill="#3A8ABF" transform="translate(31,14)"/>
<path d="M0 0 C4.61246909 0.78177442 6.47804744 2.26627058 9.6875 5.625 C11.0625 8.4375 11.0625 8.4375 11.6875 10.625 C11.10742188 10.66238281 10.52734375 10.69976562 9.9296875 10.73828125 C4.83658122 11.16690901 1.21296806 12.0863228 -3.3125 14.625 C-3.9725 14.625 -4.6325 14.625 -5.3125 14.625 C-5.6425 15.285 -5.9725 15.945 -6.3125 16.625 C-7.3025 16.625 -8.2925 16.625 -9.3125 16.625 C-9.6425 17.285 -9.9725 17.945 -10.3125 18.625 C-10.6425 17.965 -10.9725 17.305 -11.3125 16.625 C-10.421875 14.19921875 -10.421875 14.19921875 -9.0625 11.3125 C-8.40507813 9.89517578 -8.40507813 9.89517578 -7.734375 8.44921875 C-3.84587755 0.72563727 -3.84587755 0.72563727 0 0 Z " fill="#5AA5D5" transform="translate(47.3125,5.375)"/>
<path d="M0 0 C0.19178023 3.49998913 0.1375812 5.66770491 -2 8.5 C-6.91660996 13.94168481 -15.07068464 15.50848817 -22 17 C-22.66 16.67 -23.32 16.34 -24 16 C-23.34 15.01 -22.68 14.02 -22 13 C-21.34 13 -20.68 13 -20 13 C-20 12.34 -20 11.68 -20 11 C-19.34 11 -18.68 11 -18 11 C-17.7215625 10.41734375 -17.443125 9.8346875 -17.15625 9.234375 C-12.93648131 1.07995712 -9.21908687 -1.14783097 0 0 Z " fill="#C4D207" transform="translate(60,16)"/>
<path d="M0 0 C0.66 0.33 1.32 0.66 2 1 C-4.35570471 9.58020135 -11.05471258 16.8271714 -19.6875 23.125 C-20.23422363 23.54007813 -20.78094727 23.95515625 -21.34423828 24.3828125 C-22.94921875 25.5078125 -22.94921875 25.5078125 -26 27 C-28.89453125 26.2421875 -28.89453125 26.2421875 -31 25 C-30.505 23.515 -30.505 23.515 -30 22 C-30 22.66 -30 23.32 -30 24 C-26.4741947 21.99769082 -23.45916656 19.82610715 -20.4375 17.125 C-19.69371094 16.46757813 -18.94992188 15.81015625 -18.18359375 15.1328125 C-15.93004502 13.03532053 -15.93004502 13.03532053 -14.078125 10.4765625 C-11.73990692 7.69003945 -9.41839695 6.12431965 -6.3125 4.25 C-2.9744423 2.36556211 -2.9744423 2.36556211 0 0 Z " fill="#77B72B" transform="translate(34,23)"/>
<path d="M0 0 C-7.23552 6.38948189 -14.24202073 11.7589313 -23 16 C-22.67 16.99 -22.34 17.98 -22 19 C-22.99 19.33 -23.98 19.66 -25 20 C-25.66 20.66 -26.32 21.32 -27 22 C-29.475 18.04 -29.475 18.04 -32 14 C-30.33333333 14 -28.66666667 14 -27 14 C-24.68626186 12.43698045 -22.43303151 10.84343554 -20.1875 9.1875 C-5.25392157 -1.75130719 -5.25392157 -1.75130719 0 0 Z " fill="#3789B8" transform="translate(35,35)"/>
<path d="M0 0 C-0.42954381 1.3983022 -0.86907034 2.79353907 -1.3125 4.1875 C-1.55613281 4.96480469 -1.79976562 5.74210938 -2.05078125 6.54296875 C-4.09195111 11.82649074 -6.46178451 14.68248065 -11.1875 17.8125 C-12.08855469 18.41707031 -12.98960938 19.02164062 -13.91796875 19.64453125 C-14.60503906 20.09183594 -15.29210937 20.53914063 -16 21 C-16.66 20.67 -17.32 20.34 -18 20 C-17.60167969 19.34773438 -17.20335938 18.69546875 -16.79296875 18.0234375 C-16.26316406 17.14945313 -15.73335937 16.27546875 -15.1875 15.375 C-14.35605469 14.00601562 -14.35605469 14.00601562 -13.5078125 12.609375 C-11.89093055 9.93273926 -11.89093055 9.93273926 -10.5625 6.625 C-8.33764361 2.88724127 -4.56466107 0 0 0 Z " fill="#0A8638" transform="translate(42,9)"/>
<path d="M0 0 C1 2 1 2 0.3203125 4.46875 C-2.78925813 12.35445852 -6.79071674 18.20124786 -13 24 C-13.33 24 -13.66 24 -14 24 C-14.33620718 19.26565397 -13.76961993 16.92190804 -10.9375 13.125 C-10.30585938 12.27421875 -9.67421875 11.4234375 -9.0234375 10.546875 C-6.13899018 6.91625791 -3.13737402 3.41392067 0 0 Z " fill="#8EBD21" transform="translate(23,12)"/>
<path d="M0 0 C0.66 0.33 1.32 0.66 2 1 C1.40832031 1.88558594 0.81664062 2.77117188 0.20703125 3.68359375 C-5.86317162 13.08862154 -9.35682417 22.14836857 -12 33 C-12.33 33 -12.66 33 -13 33 C-13.48052117 22.64209924 -13.31499614 14.44522849 -6.21240234 6.38891602 C-4.1936977 4.20579995 -2.11618775 2.08839542 0 0 Z " fill="#378DAA" transform="translate(13,6)"/>
<path d="M0 0 C0.33 1.32 0.66 2.64 1 4 C2.65 4 4.3 4 6 4 C2.27020153 6.22819129 -1.72200539 6.87182138 -5.9375 7.625 C-6.64068359 7.7590625 -7.34386719 7.893125 -8.06835938 8.03125 C-11.75411981 8.7082969 -15.25172849 9.16137372 -19 9 C-18.67 7.68 -18.34 6.36 -18 5 C-16.95199219 4.72285156 -15.90398438 4.44570313 -14.82421875 4.16015625 C-13.44529933 3.79432048 -12.0663938 3.42843233 -10.6875 3.0625 C-9.65206055 2.78889648 -9.65206055 2.78889648 -8.59570312 2.50976562 C-5.70112156 1.7406739 -2.84215271 0.94738424 0 0 Z " fill="#44A33A" transform="translate(28,49)"/>
<path d="M0 0 C0 1.98 0 3.96 0 6 C-3.63 7.98 -7.26 9.96 -11 12 C-10.82639603 5.31624731 -10.82639603 5.31624731 -10 2 C-6.59331486 -0.649644 -4.09302494 -1.7316644 0 0 Z " fill="#C1D108" transform="translate(43,2)"/>
<path d="M0 0 C0.33 0.66 0.66 1.32 1 2 C0.175 2.350625 -0.65 2.70125 -1.5 3.0625 C-5.32350152 4.9423122 -8.24767223 7.70785845 -11.36328125 10.57421875 C-13 12 -13 12 -14 12 C-14.33 9.03 -14.66 6.06 -15 3 C-9.8531808 -0.16727335 -5.841744 -0.35050464 0 0 Z " fill="#519FD1" transform="translate(38,0)"/>
<path d="M0 0 C0.66 0.33 1.32 0.66 2 1 C2.40729228 3.32156597 2.74438677 5.6568787 3 8 C-1.76307437 8.95261487 -6.1666528 9.08333357 -11 9 C-11 7.68 -11 6.36 -11 5 C-9.21289414 4.13633178 -7.4201535 3.28431406 -5.625 2.4375 C-4.62726562 1.96183594 -3.62953125 1.48617187 -2.6015625 0.99609375 C-1.74304687 0.66738281 -0.88453125 0.33867188 0 0 Z " fill="#9EC31B" transform="translate(40,44)"/>
<path d="M0 0 C0.70769531 -0.00386719 1.41539063 -0.00773437 2.14453125 -0.01171875 C7.00882959 -0.00282607 11.68380836 0.44162146 16.5 1.125 C12.85783305 3.42322325 9.79174993 3.35628602 5.546875 3.3203125 C4.88665344 3.3174826 4.22643188 3.31465271 3.54620361 3.31173706 C1.44728103 3.30058415 -0.65120742 3.27548946 -2.75 3.25 C-4.17707715 3.23996384 -5.60416102 3.2308391 -7.03125 3.22265625 C-10.52097328 3.20066111 -14.01044423 3.16616536 -17.5 3.125 C-17.17 2.465 -16.84 1.805 -16.5 1.125 C-10.98978734 0.16193186 -5.58260743 -0.03050605 0 0 Z " fill="#ADCA12" transform="translate(33.5,60.875)"/>
<path d="M0 0 C0.33 0 0.66 0 1 0 C0.31495857 7.80947227 -1.4748147 14.11835113 -7 20 C-7.66 20 -8.32 20 -9 20 C-8.42003632 12.65379336 -4.64701486 5.63353198 0 0 Z " fill="#2D82B1" transform="translate(12,16)"/>
<path d="M0 0 C0.66 0 1.32 0 2 0 C2 4.62 2 9.24 2 14 C1.67 13.34 1.34 12.68 1 12 C-2.63 12 -6.26 12 -10 12 C-9.2575 11.443125 -8.515 10.88625 -7.75 10.3125 C-4.12772023 7.26649201 -1.50757378 4.52272135 0 0 Z " fill="#18963A" transform="translate(62,28)"/>
<path d="M0 0 C0.66 0.33 1.32 0.66 2 1 C0.89847594 2.43952597 -0.2063304 3.87654071 -1.3125 5.3125 C-1.92738281 6.11300781 -2.54226562 6.91351563 -3.17578125 7.73828125 C-4.69916307 9.62701374 -6.24434407 11.33077636 -8 13 C-9.32 12.34 -10.64 11.68 -12 11 C-10.50253294 7.11002809 -8.29577922 5.53051948 -4.875 3.25 C-3.50988281 2.32960938 -3.50988281 2.32960938 -2.1171875 1.390625 C-1.06917969 0.70226562 -1.06917969 0.70226562 0 0 Z " fill="#8FBE20" transform="translate(34,23)"/>
<path d="M0 0 C-1.51270549 3.45308687 -3.54720642 5.95624379 -6.0625 8.75 C-7.13177734 9.94882812 -7.13177734 9.94882812 -8.22265625 11.171875 C-8.80917969 11.77515625 -9.39570313 12.3784375 -10 13 C-10.33 13 -10.66 13 -11 13 C-11.50341475 7.7141451 -10.26910671 5.13445849 -7 1 C-4.53721199 -0.231394 -2.7204945 -0.07159196 0 0 Z " fill="#98C019" transform="translate(23,3)"/>
<path d="M0 0 C0.66 0.33 1.32 0.66 2 1 C1.484375 1.5775 0.96875 2.155 0.4375 2.75 C-1.26505193 4.87827523 -1.26505193 4.87827523 -0.6875 7.25 C-0.460625 7.8275 -0.23375 8.405 0 9 C-0.99 9.33 -1.98 9.66 -3 10 C-3.66 10.66 -4.32 11.32 -5 12 C-7.475 8.04 -7.475 8.04 -10 4 C-8.33333333 4 -6.66666667 4 -5 4 C-3.30225062 2.70647667 -1.63260714 1.37482707 0 0 Z " fill="#1E8086" transform="translate(13,45)"/>
<path d="M0 0 C4.02222388 2.01111194 5.48314253 3.40448933 8 7 C8 7.66 8 8.32 8 9 C5.36 9 2.72 9 0 9 C0 6.03 0 3.06 0 0 Z " fill="#1E953B" transform="translate(51,7)"/>
<path d="M0 0 C0.66 0.99 1.32 1.98 2 3 C0.45469287 4.23024451 -1.11203201 5.4336242 -2.6875 6.625 C-3.55761719 7.29789063 -4.42773438 7.97078125 -5.32421875 8.6640625 C-8 10 -8 10 -10.83203125 9.2109375 C-11.54746094 8.81132813 -12.26289063 8.41171875 -13 8 C-12.67 7.01 -12.34 6.02 -12 5 C-12 5.66 -12 6.32 -12 7 C-11.319375 6.5875 -10.63875 6.175 -9.9375 5.75 C-6.64808652 3.79034942 -3.32839137 1.8926147 0 0 Z " fill="#53AC2F" transform="translate(16,40)"/>
<path d="M0 0 C0.66 0.66 1.32 1.32 2 2 C0.35 7.61 -1.3 13.22 -3 19 C-3.33 19 -3.66 19 -4 19 C-4.05441656 17.10448978 -4.09298035 15.2085208 -4.125 13.3125 C-4.14820313 12.25675781 -4.17140625 11.20101563 -4.1953125 10.11328125 C-3.92656016 5.82936893 -3.04732617 3.04732617 0 0 Z " fill="#297EB8" transform="translate(4,20)"/>
<path d="M0 0 C2.31 0 4.62 0 7 0 C7.3125 2.3125 7.3125 2.3125 7 5 C4.5 6.8125 4.5 6.8125 2 8 C0.4375 5.6875 0.4375 5.6875 -1 3 C-0.67 2.01 -0.34 1.02 0 0 Z " fill="#D8DA04" transform="translate(53,16)"/>
<path d="M0 0 C0.33 0.66 0.66 1.32 1 2 C0.26821134 4.07196631 -0.55899003 6.1108552 -1.4375 8.125 C-1.91058594 9.22070312 -2.38367188 10.31640625 -2.87109375 11.4453125 C-3.24363281 12.28835937 -3.61617187 13.13140625 -4 14 C-4.66 14 -5.32 14 -6 14 C-6.42670076 10.51527717 -6.64789556 7.9813155 -4.6640625 4.9765625 C-3.16390788 3.25103253 -1.63343216 1.59940232 0 0 Z " fill="#AEC910" transform="translate(23,12)"/>
<path d="M0 0 C-1.3815972 2.7631944 -2.92179609 3.0286058 -5.75 4.1875 C-6.61109375 4.55230469 -7.4721875 4.91710938 -8.359375 5.29296875 C-11.31736724 6.08497555 -13.08336619 5.82358185 -16 5 C-10.36715811 0.57419566 -7.11290272 -0.23709676 0 0 Z " fill="#2C9432" transform="translate(26,47)"/>
<path d="M0 0 C0.33 1.32 0.66 2.64 1 4 C2.65 4 4.3 4 6 4 C6 4.33 6 4.66 6 5 C-0.435 5.495 -0.435 5.495 -7 6 C-6.67 4.68 -6.34 3.36 -6 2 C-2.9375 0.75 -2.9375 0.75 0 0 Z " fill="#68AF31" transform="translate(28,49)"/>
<path d="M0 0 C0.99 0.66 1.98 1.32 3 2 C2.3125 3.9375 2.3125 3.9375 1 6 C-1.625 6.75 -1.625 6.75 -4 7 C-6 4 -6 4 -6 2 C-4.7934375 1.7834375 -4.7934375 1.7834375 -3.5625 1.5625 C-1.07896294 1.25864751 -1.07896294 1.25864751 0 0 Z " fill="#217BAE" transform="translate(7,40)"/>
<path d="M0 0 C2.66673742 -0.02727345 5.33318869 -0.04696948 8 -0.0625 C8.74378906 -0.07087891 9.48757812 -0.07925781 10.25390625 -0.08789062 C15.26148844 -0.10966272 20.04279032 0.28458451 25 1 C21.36576791 3.32590854 18.22911669 3.16265833 14 3 C14 2.34 14 1.68 14 1 C9.38 1 4.76 1 0 1 C0 0.67 0 0.34 0 0 Z " fill="#64AC54" transform="translate(25,61)"/>
<path d="M0 0 C0.66 1.98 1.32 3.96 2 6 C-0.64 6 -3.28 6 -6 6 C-6 4.68 -6 3.36 -6 2 C-2.25 0 -2.25 0 0 0 Z " fill="#8ABC27" transform="translate(35,47)"/>
<path d="M0 0 C0.598125 0.20625 1.19625 0.4125 1.8125 0.625 C1.4825 1.615 1.1525 2.605 0.8125 3.625 C2.4625 3.625 4.1125 3.625 5.8125 3.625 C5.8125 3.955 5.8125 4.285 5.8125 4.625 C3.1725 5.285 0.5325 5.945 -2.1875 6.625 C-3.1775 4.975 -4.1675 3.325 -5.1875 1.625 C-2.1875 -0.375 -2.1875 -0.375 0 0 Z " fill="#277EB1" transform="translate(16.1875,57.375)"/>
<path d="M0 0 C0.99 0.33 1.98 0.66 3 1 C3.33 2.98 3.66 4.96 4 7 C2.68 7.33 1.36 7.66 0 8 C-0.66 5.69 -1.32 3.38 -2 1 C-1.34 0.67 -0.68 0.34 0 0 Z " fill="#ABC80F" transform="translate(43,43)"/>
<path d="M0 0 C0.99 0.66 1.98 1.32 3 2 C1.52307692 6.67692308 1.52307692 6.67692308 -1.125 8.3125 C-2.053125 8.6528125 -2.053125 8.6528125 -3 9 C-2.5020163 5.26512223 -2.12508244 3.18762365 0 0 Z " fill="#217AAF" transform="translate(6,27)"/>
<path d="M0 0 C1.32 0 2.64 0 4 0 C2.4169423 4.2742558 -0.50568404 6.26531794 -4 9 C-3.47679633 5.23293356 -2.72611199 2.72611199 0 0 Z " fill="#B4CB0A" transform="translate(19,3)"/>
<path d="M0 0 C-0.66 2.31 -1.32 4.62 -2 7 C-3.32 6.67 -4.64 6.34 -6 6 C-6 4.68 -6 3.36 -6 2 C-2.25 0 -2.25 0 0 0 Z " fill="#129236" transform="translate(42,9)"/>
<path d="M0 0 C1.65 0 3.3 0 5 0 C4.34 2.31 3.68 4.62 3 7 C2.01 7 1.02 7 0 7 C0 4.69 0 2.38 0 0 Z " fill="#1B8F39" transform="translate(1,35)"/>
<path d="M0 0 C0.33 0.99 0.66 1.98 1 3 C0.2884375 3.6496875 0.2884375 3.6496875 -0.4375 4.3125 C-2.23686957 6.02309613 -2.23686957 6.02309613 -3 9 C-4.65 9.33 -6.3 9.66 -8 10 C-7.34 8.68 -6.68 7.36 -6 6 C-5.34 6 -4.68 6 -4 6 C-4 5.34 -4 4.68 -4 4 C-3.34 4 -2.68 4 -2 4 C-1.34 2.68 -0.68 1.36 0 0 Z " fill="#A8C61F" transform="translate(44,23)"/>
<path d="M0 0 C0.33 0.66 0.66 1.32 1 2 C3.31 1.34 5.62 0.68 8 0 C8 0.99 8 1.98 8 3 C5.6875 4.125 5.6875 4.125 3 5 C2.01 4.34 1.02 3.68 0 3 C0 2.01 0 1.02 0 0 Z " fill="#37A033" transform="translate(3,45)"/>
<path d="M0 0 C1.32 1.32 2.64 2.64 4 4 C0.94736336 4.98120464 -0.94736336 4.98120464 -4 4 C-2.68 2.68 -1.36 1.36 0 0 Z " fill="#67B233" transform="translate(17,37)"/>
<path d="M0 0 C0.66 0.33 1.32 0.66 2 1 C2.625 3.0625 2.625 3.0625 3 5 C1.68 5.99 0.36 6.98 -1 8 C-1.125 2.25 -1.125 2.25 0 0 Z " fill="#71B329" transform="translate(10,28)"/>
<path d="M0 0 C2.64 0 5.28 0 8 0 C8.33 0.66 8.66 1.32 9 2 C7.02 2.66 5.04 3.32 3 4 C2.01 2.68 1.02 1.36 0 0 Z " fill="#1A943E" transform="translate(30,0)"/>
<path d="M0 0 C0.66 0.33 1.32 0.66 2 1 C1.505 1.639375 1.01 2.27875 0.5 2.9375 C-1.09802862 4.70974339 -1.09802862 4.70974339 -1 6 C-2.65 6 -4.3 6 -6 6 C-4 4 -2 2 0 0 Z " fill="#207D9B" transform="translate(13,45)"/>
<path d="" fill="#539CBB" transform="translate(0,0)"/>
</svg>
