<svg preserveAspectRatio="none" overflow="visible" style="display: block;" width="50.8594" height="51.6669" viewBox="0 0 50.8594 51.6669" fill="none" xmlns="http://www.w3.org/2000/svg">
<g id="Group">
<path id="Vector" d="M25.4297 0C11.4179 0 0 11.5992 0 25.8333C0 40.0675 11.4179 51.6667 25.4297 51.6667C39.4414 51.6667 50.8594 40.0675 50.8594 25.8333C50.8594 11.5992 39.4414 0 25.4297 0ZM36.4916 35.0558C36.1356 35.6758 35.4998 36.0117 34.8387 36.0117C34.5081 36.0117 34.1775 35.9342 33.8723 35.7275L25.9891 30.9483C24.0311 29.76 22.5816 27.1508 22.5816 24.8517V14.26C22.5816 13.2008 23.4462 12.3225 24.4888 12.3225C25.5314 12.3225 26.396 13.2008 26.396 14.26V24.8517C26.396 25.7817 27.1589 27.1508 27.9472 27.6158L35.8304 32.395C36.7459 32.9375 37.0511 34.1258 36.4916 35.0558Z" fill="white"/>
</g>
</svg>
